<?xml version="1.0" encoding="iso-8859-1"?>
<!-- Uploaded to: SVG Repo, www.svgrepo.com, Generator: SVG Repo Mixer Tools -->
<!DOCTYPE svg PUBLIC "-//W3C//DTD SVG 1.1//EN" "http://www.w3.org/Graphics/SVG/1.1/DTD/svg11.dtd">
<svg style="fill:currentColor;" height="800px" width="800px" version="1.1" id="Capa_1" xmlns="http://www.w3.org/2000/svg" xmlns:xlink="http://www.w3.org/1999/xlink"
	 viewBox="0 0 60 60" xml:space="preserve">
<g>
	<path d="M55.894,37.041C58.582,33.271,60,28.913,60,24.414C60,11.504,48.337,1,34,1c-8.245,0-15.968,3.592-20.824,9.42
		C17.021,8.613,21.38,7.586,26,7.586c15.439,0,28,11.4,28,25.414c0,5.506-1.945,10.604-5.235,14.77
		c4.946,1.886,9.854,2.601,10.096,2.635c0.047,0.007,0.094,0.01,0.14,0.01c0.375,0,0.724-0.211,0.895-0.554
		c0.192-0.385,0.116-0.85-0.188-1.153C57.754,46.754,56.404,42.619,55.894,37.041z"/>
	<path d="M26,9.586C11.664,9.586,0,20.09,0,33c0,4.499,1.418,8.856,4.106,12.627c-0.51,5.578-1.86,9.713-3.813,11.666
		c-0.304,0.304-0.38,0.769-0.188,1.153C0.276,58.789,0.625,59,1,59c0.046,0,0.093-0.003,0.139-0.01
		c0.35-0.049,8.433-1.213,14.317-4.586c3.33,1.334,6.875,2.01,10.544,2.01c14.336,0,26-10.504,26-23.414S40.337,9.586,26,9.586z
		 M19.5,25h14c0.552,0,1,0.447,1,1s-0.448,1-1,1h-14c-0.552,0-1-0.447-1-1S18.948,25,19.5,25z M39,41H14c-0.552,0-1-0.447-1-1
		s0.448-1,1-1h25c0.552,0,1,0.447,1,1S39.552,41,39,41z M39,34H14c-0.552,0-1-0.447-1-1s0.448-1,1-1h25c0.552,0,1,0.447,1,1
		S39.552,34,39,34z"/>
</g>
</svg>
